<?xml version="1.0" standalone="no"?>
<!DOCTYPE svg PUBLIC "-//W3C//DTD SVG 20010904//EN"
 "http://www.w3.org/TR/2001/REC-SVG-20010904/DTD/svg10.dtd">
<svg version="1.0" xmlns="http://www.w3.org/2000/svg"
 width="700.000000pt" height="700.000000pt" viewBox="0 0 700.000000 700.000000"
 preserveAspectRatio="xMidYMid meet">
<metadata>
Created by potrace 1.14, written by Peter Selinger 2001-2017
</metadata>
<g transform="translate(0.000000,700.000000) scale(0.100000,-0.100000)"
fill="#000000" stroke="none">
<path d="M0 3500 l0 -3500 3500 0 3500 0 0 3500 0 3500 -3500 0 -3500 0 0
-3500z m6300 0 l0 -2800 -2800 0 -2800 0 0 2800 0 2800 2800 0 2800 0 0 -2800z"/>
<path d="M2360 5316 c-1 -126 -1 -388 0 -523 l0 -103 689 0 689 0 -2 -1022 -2
-1023 -26 -77 c-15 -43 -38 -102 -53 -132 -53 -109 -180 -207 -305 -236 -54
-13 -242 -18 -290 -7 -90 19 -125 29 -151 42 -16 9 -32 16 -36 17 -80 12 -308
198 -393 321 -24 36 -25 36 -41 17 -61 -72 -107 -126 -124 -146 -11 -13 -36
-42 -55 -66 -19 -23 -51 -60 -71 -83 -19 -22 -71 -83 -114 -135 -44 -52 -88
-104 -97 -114 -25 -27 -23 -36 19 -87 171 -206 410 -355 733 -457 215 -68 588
-85 848 -38 17 3 46 8 62 11 40 7 129 31 160 43 27 10 29 11 61 19 11 3 58 24
102 45 324 156 521 419 622 828 9 36 18 81 21 100 3 19 7 42 9 50 4 14 13 92
21 165 5 55 5 151 5 1235 0 591 0 1136 0 1210 0 74 0 160 0 191 l-1 57 -1140
0 -1140 0 0 -102z"/>
</g>
</svg>
