<?xml version="1.0" encoding="UTF-8"?>
<svg width="1478px" height="2057px" viewBox="0 0 1478 2057" version="1.1" xmlns="http://www.w3.org/2000/svg" xmlns:xlink="http://www.w3.org/1999/xlink">
    <title>Background</title>
    <defs>
        <circle id="path-1" cx="622.336391" cy="682.756081" r="59"></circle>
        <mask id="mask-2" maskContentUnits="userSpaceOnUse" maskUnits="objectBoundingBox" x="0" y="0" width="118" height="118" fill="white">
            <use xlink:href="#path-1"></use>
        </mask>
        <circle id="path-3" cx="624.678328" cy="677.204312" r="129"></circle>
        <mask id="mask-4" maskContentUnits="userSpaceOnUse" maskUnits="objectBoundingBox" x="0" y="0" width="258" height="258" fill="white">
            <use xlink:href="#path-3"></use>
        </mask>
        <circle id="path-5" cx="622.336391" cy="682.756081" r="59"></circle>
        <mask id="mask-6" maskContentUnits="userSpaceOnUse" maskUnits="objectBoundingBox" x="0" y="0" width="118" height="118" fill="white">
            <use xlink:href="#path-5"></use>
        </mask>
        <circle id="path-7" cx="624.678328" cy="677.204312" r="129"></circle>
        <mask id="mask-8" maskContentUnits="userSpaceOnUse" maskUnits="objectBoundingBox" x="0" y="0" width="258" height="258" fill="white">
            <use xlink:href="#path-7"></use>
        </mask>
    </defs>
    <g id="Welcome" stroke="none" stroke-width="1" fill="none" fill-rule="evenodd">
        <g id="Desktop-HD" transform="translate(60.000000, 60.000000)" stroke="#FFBC81">
            <g id="Background" transform="translate(-54.160577, -54.296356)">
                <g id="Minimap-Asteroids-Background" transform="translate(718.500000, 541.500000) rotate(-8.000000) translate(-718.500000, -541.500000) translate(57.000000, 88.000000)">
                    <path d="M210.195864,22.296102 C210.218783,22.1133435 213.207058,27.975509 219.16069,39.8825987 C225.114323,51.7896884 238.62629,78.9275228 259.696591,121.296102 C259.785918,121.738415 243.285676,112.175687 210.195864,92.6079184 C177.535736,111.604127 161.195512,120.359623 161.175193,118.874407 L201.399042,39.6272022 L210.195864,22.296102 Z" id="Triangle" stroke-width="8" transform="translate(210.435892, 71.801363) rotate(50.000000) translate(-210.435892, -71.801363) "></path>
                    <g id="Line-2" transform="translate(0.201481, 114.708469)" stroke-dasharray="20,25" stroke-linecap="square" stroke-width="8">
                        <path d="M0.651661856,656.314799 C140.027765,673.783625 219.371415,619.307782 238.682613,492.887271 C261.130315,345.933679 130.152487,271.8639 106.120417,168.220672 C91.0024861,103.021499 107.809113,47.004106 156.540296,0.168493179" id="Line"></path>
                    </g>
                    <path d="M224.765798,265.005417 C224.788717,264.822659 227.776992,270.684824 233.730624,282.591914 C239.684257,294.499004 253.196224,321.636838 274.266526,364.005417 C274.355853,364.44773 257.85561,354.885003 224.765798,335.317234 C192.10567,354.313442 175.765446,363.068939 175.745127,361.583722 L215.968976,282.336517 L224.765798,265.005417 Z" id="Triangle" stroke-width="8" transform="translate(225.005827, 314.510678) rotate(70.000000) translate(-225.005827, -314.510678) "></path>
                    <path d="M1068.01423,694.999622 C1068.03715,694.816863 1071.02543,700.679029 1076.97906,712.586118 C1082.93269,724.493208 1096.44466,751.631042 1117.51496,793.999622 C1117.60429,794.441935 1101.10405,784.879207 1068.01423,765.311438 C1035.35411,784.307647 1019.01388,793.063143 1018.99356,791.577926 L1059.21741,712.330722 L1068.01423,694.999622 Z" id="Triangle" stroke-width="8" transform="translate(1068.254263, 744.504882) rotate(-23.000000) translate(-1068.254263, -744.504882) "></path>
                    <path d="M1172.38159,424.987662 C1172.4045,424.804903 1175.39278,430.667069 1181.34641,442.574158 C1187.30004,454.481248 1200.81201,481.619082 1221.88231,523.987662 C1221.97164,524.429975 1205.4714,514.867247 1172.38159,495.299478 C1139.72146,514.295687 1123.38123,523.051183 1123.36092,521.565966 L1163.58476,442.318762 L1172.38159,424.987662 Z" id="Triangle" stroke-width="8" transform="translate(1172.621614, 474.492922) rotate(-120.000000) translate(-1172.621614, -474.492922) "></path>
                    <path d="M840.442036,85.4955047 C840.464954,85.3127462 843.45323,91.1749117 849.406862,103.082001 C855.360494,114.989091 868.872461,142.126926 889.942763,184.495505 C890.03209,184.937818 873.531848,175.37509 840.442036,155.807321 C807.781907,174.80353 791.441684,183.559026 791.421365,182.073809 L831.645214,102.826605 L840.442036,85.4955047 Z" id="Triangle" stroke-width="8" transform="translate(840.682064, 135.000765) rotate(-118.000000) translate(-840.682064, -135.000765) "></path>
                    <polygon id="Star" stroke-width="8" stroke-linejoin="round" points="965.81901 582.628312 931.727465 600.551297 938.238371 562.589804 910.657732 535.705326 948.773237 530.166819 965.81901 495.628312 982.864782 530.166819 1020.98029 535.705326 993.399649 562.589804 999.910554 600.551297"></polygon>
                    <polygon id="Star" stroke-width="8" stroke-linejoin="round" points="965.81901 582.628312 931.727465 600.551297 938.238371 562.589804 910.657732 535.705326 948.773237 530.166819 965.81901 495.628312 982.864782 530.166819 1020.98029 535.705326 993.399649 562.589804 999.910554 600.551297"></polygon>
                    <polygon id="Star" stroke-width="8" stroke-linejoin="round" points="493.691098 87.116218 459.599553 105.039204 466.110459 67.0777109 438.52982 40.1932323 476.645325 34.6547252 493.691098 0.11621802 510.73687 34.6547252 548.852376 40.1932323 521.271737 67.0777109 527.782642 105.039204"></polygon>
                    <path d="M1093.5843,808.209997 C1125.42543,885.435721 1175.96904,917.211893 1245.21514,903.538511 C1349.0843,883.028438 1319.98818,745.264584 1313.47246,720.446707 C1306.95675,695.62883 1234.55814,559.499168 1313.47246,418.212597" id="Line-3" stroke-width="8" stroke-linecap="square" stroke-dasharray="20,25"></path>
                    <use id="Oval" mask="url(#mask-2)" stroke-width="16" stroke-dasharray="40,30" xlink:href="#path-1"></use>
                    <use id="Oval" mask="url(#mask-4)" stroke-width="16" stroke-dasharray="40,120" transform="translate(624.678328, 677.204312) rotate(-6.000000) translate(-624.678328, -677.204312) " xlink:href="#path-3"></use>
                    <line x1="698.696342" y1="638.403801" x2="657.66817" y2="659.5075" id="Line-4" stroke-width="8" stroke-linecap="square" transform="translate(678.182256, 648.955650) rotate(-4.000000) translate(-678.182256, -648.955650) "></line>
                    <line x1="366.85915" y1="267.66552" x2="322.213668" y2="277.922548" id="Line-4" stroke-width="8" stroke-linecap="square" transform="translate(344.713668, 272.818849) rotate(-4.000000) translate(-344.713668, -272.818849) "></line>
                    <line x1="688.348702" y1="172.03881" x2="643.703221" y2="182.295838" id="Line-4" stroke-width="8" stroke-linecap="square" transform="translate(666.203221, 177.192140) rotate(-4.000000) translate(-666.203221, -177.192140) "></line>
                </g>
                <g id="Minimap-Asteroids-Background" transform="translate(748.500000, 1504.796356) scale(-1, 1) rotate(8.000000) translate(-748.500000, -1504.796356) translate(87.000000, 1051.296356)">
                    <path d="M210.195864,22.296102 C210.218783,22.1133435 213.207058,27.975509 219.16069,39.8825987 C225.114323,51.7896884 238.62629,78.9275228 259.696591,121.296102 C259.785918,121.738415 243.285676,112.175687 210.195864,92.6079184 C177.535736,111.604127 161.195512,120.359623 161.175193,118.874407 L201.399042,39.6272022 L210.195864,22.296102 Z" id="Triangle" stroke-width="8" transform="translate(210.435892, 71.801363) rotate(50.000000) translate(-210.435892, -71.801363) "></path>
                    <g id="Line-2" transform="translate(0.201481, 114.708469)" stroke-dasharray="20,25" stroke-linecap="square" stroke-width="8">
                        <path d="M0.651661856,656.314799 C140.027765,673.783625 219.371415,619.307782 238.682613,492.887271 C261.130315,345.933679 130.152487,271.8639 106.120417,168.220672 C91.0024861,103.021499 107.809113,47.004106 156.540296,0.168493179" id="Line"></path>
                    </g>
                    <path d="M224.765798,265.005417 C224.788717,264.822659 227.776992,270.684824 233.730624,282.591914 C239.684257,294.499004 253.196224,321.636838 274.266526,364.005417 C274.355853,364.44773 257.85561,354.885003 224.765798,335.317234 C192.10567,354.313442 175.765446,363.068939 175.745127,361.583722 L215.968976,282.336517 L224.765798,265.005417 Z" id="Triangle" stroke-width="8" transform="translate(225.005827, 314.510678) rotate(70.000000) translate(-225.005827, -314.510678) "></path>
                    <path d="M1068.01423,694.999622 C1068.03715,694.816863 1071.02543,700.679029 1076.97906,712.586118 C1082.93269,724.493208 1096.44466,751.631042 1117.51496,793.999622 C1117.60429,794.441935 1101.10405,784.879207 1068.01423,765.311438 C1035.35411,784.307647 1019.01388,793.063143 1018.99356,791.577926 L1059.21741,712.330722 L1068.01423,694.999622 Z" id="Triangle" stroke-width="8" transform="translate(1068.254263, 744.504882) rotate(-23.000000) translate(-1068.254263, -744.504882) "></path>
                    <path d="M1172.38159,424.987662 C1172.4045,424.804903 1175.39278,430.667069 1181.34641,442.574158 C1187.30004,454.481248 1200.81201,481.619082 1221.88231,523.987662 C1221.97164,524.429975 1205.4714,514.867247 1172.38159,495.299478 C1139.72146,514.295687 1123.38123,523.051183 1123.36092,521.565966 L1163.58476,442.318762 L1172.38159,424.987662 Z" id="Triangle" stroke-width="8" transform="translate(1172.621614, 474.492922) rotate(-120.000000) translate(-1172.621614, -474.492922) "></path>
                    <path d="M840.442036,85.4955047 C840.464954,85.3127462 843.45323,91.1749117 849.406862,103.082001 C855.360494,114.989091 868.872461,142.126926 889.942763,184.495505 C890.03209,184.937818 873.531848,175.37509 840.442036,155.807321 C807.781907,174.80353 791.441684,183.559026 791.421365,182.073809 L831.645214,102.826605 L840.442036,85.4955047 Z" id="Triangle" stroke-width="8" transform="translate(840.682064, 135.000765) rotate(-118.000000) translate(-840.682064, -135.000765) "></path>
                    <polygon id="Star" stroke-width="8" stroke-linejoin="round" points="965.81901 582.628312 931.727465 600.551297 938.238371 562.589804 910.657732 535.705326 948.773237 530.166819 965.81901 495.628312 982.864782 530.166819 1020.98029 535.705326 993.399649 562.589804 999.910554 600.551297"></polygon>
                    <polygon id="Star" stroke-width="8" stroke-linejoin="round" points="965.81901 582.628312 931.727465 600.551297 938.238371 562.589804 910.657732 535.705326 948.773237 530.166819 965.81901 495.628312 982.864782 530.166819 1020.98029 535.705326 993.399649 562.589804 999.910554 600.551297"></polygon>
                    <polygon id="Star" stroke-width="8" stroke-linejoin="round" points="493.691098 87.116218 459.599553 105.039204 466.110459 67.0777109 438.52982 40.1932323 476.645325 34.6547252 493.691098 0.11621802 510.73687 34.6547252 548.852376 40.1932323 521.271737 67.0777109 527.782642 105.039204"></polygon>
                    <path d="M1093.5843,808.209997 C1125.42543,885.435721 1175.96904,917.211893 1245.21514,903.538511 C1349.0843,883.028438 1319.98818,745.264584 1313.47246,720.446707 C1306.95675,695.62883 1234.55814,559.499168 1313.47246,418.212597" id="Line-3" stroke-width="8" stroke-linecap="square" stroke-dasharray="20,25"></path>
                    <use id="Oval" mask="url(#mask-6)" stroke-width="16" stroke-dasharray="40,30" xlink:href="#path-5"></use>
                    <use id="Oval" mask="url(#mask-8)" stroke-width="16" stroke-dasharray="40,120" transform="translate(624.678328, 677.204312) rotate(-6.000000) translate(-624.678328, -677.204312) " xlink:href="#path-7"></use>
                    <line x1="698.696342" y1="638.403801" x2="657.66817" y2="659.5075" id="Line-4" stroke-width="8" stroke-linecap="square" transform="translate(678.182256, 648.955650) rotate(-4.000000) translate(-678.182256, -648.955650) "></line>
                    <line x1="366.85915" y1="267.66552" x2="322.213668" y2="277.922548" id="Line-4" stroke-width="8" stroke-linecap="square" transform="translate(344.713668, 272.818849) rotate(-4.000000) translate(-344.713668, -272.818849) "></line>
                    <line x1="688.348702" y1="172.03881" x2="643.703221" y2="182.295838" id="Line-4" stroke-width="8" stroke-linecap="square" transform="translate(666.203221, 177.192140) rotate(-4.000000) translate(-666.203221, -177.192140) "></line>
                </g>
            </g>
        </g>
    </g>
</svg>